<svg 
 xmlns="http://www.w3.org/2000/svg"
 xmlns:xlink="http://www.w3.org/1999/xlink"
 width="33px" height="19px">
<path fill-rule="evenodd"  fill="rgb(19, 19, 18)"
 d="M32.804,9.519 C32.805,9.519 32.805,9.519 32.805,9.520 C33.58,9.772 33.57,10.180 32.804,10.431 L24.394,18.807 C24.143,19.47 23.746,19.47 23.495,18.807 C23.238,18.559 23.231,18.150 23.479,17.896 L30.785,10.620 L0.646,10.620 C0.289,10.620 0.0,10.331 0.0,9.976 C0.0,9.619 0.289,9.330 0.646,9.330 L30.785,9.330 L23.479,2.53 C23.237,1.804 23.237,1.408 23.479,1.158 C23.727,0.902 24.137,0.895 24.394,1.142 L32.804,9.519 Z"/>
</svg>