<svg 
 xmlns="http://www.w3.org/2000/svg"
 xmlns:xlink="http://www.w3.org/1999/xlink"
 width="25px" height="14px">
<path fill-rule="evenodd"  fill="rgb(174, 152, 112)"
 d="M24.552,6.902 C24.552,6.902 24.552,6.902 24.553,6.903 C24.741,7.90 24.741,7.396 24.552,7.585 L18.257,13.853 C18.69,14.32 17.772,14.32 17.584,13.853 C17.392,13.668 17.387,13.363 17.572,13.171 L23.40,7.725 L0.483,7.725 C0.216,7.725 0.0,7.509 0.0,7.244 C0.0,6.977 0.216,6.761 0.483,6.761 L23.40,6.761 L17.572,1.314 C17.391,1.126 17.391,0.831 17.572,0.645 C17.758,0.452 18.65,0.447 18.257,0.633 L24.552,6.902 Z"/>
</svg>