<svg 
 xmlns="http://www.w3.org/2000/svg"
 xmlns:xlink="http://www.w3.org/1999/xlink"
 width="12px" height="11px">
<path fill-rule="evenodd"  fill="rgb(255, 255, 255)"
 d="M6.308,10.862 C6.307,10.862 6.307,10.862 6.307,10.862 C6.139,11.37 5.868,11.36 5.700,10.862 L0.126,5.80 C0.33,4.909 0.33,4.635 0.126,4.464 C0.291,4.286 0.562,4.281 0.732,4.452 L5.575,9.474 L5.575,0.442 C5.575,0.196 5.767,0.1 6.4,0.1 C6.240,0.1 6.432,0.196 6.432,0.442 L6.432,9.474 L11.275,4.452 C11.442,4.285 11.705,4.285 11.871,4.452 C12.42,4.622 12.46,4.905 11.882,5.80 L6.308,10.862 Z"/>
</svg>