<svg width="0" height="0" class="hidden">
  
  <symbol xmlns="http://www.w3.org/2000/svg" xmlns:xlink="http://www.w3.org/1999/xlink" viewBox="0 0 8px 10px" id="map-point">
    <path fill-rule="evenodd" fill="rgb(174, 152, 112)" d="M3.644,0.279 C1.634,0.279 0.0,1.858 0.0,3.799 C0.0,6.207 3.261,9.742 3.400,9.891 C3.530,10.31 3.758,10.31 3.888,9.891 C4.27,9.742 7.288,6.207 7.288,3.799 C7.288,1.858 5.653,0.279 3.644,0.279 ZM3.644,5.569 C2.633,5.569 1.810,4.775 1.810,3.799 C1.810,2.822 2.633,2.28 3.644,2.28 C4.655,2.28 5.478,2.822 5.478,3.799 C5.478,4.775 4.655,5.569 3.644,5.569 Z"></path>
  </symbol>
  <symbol xmlns="http://www.w3.org/2000/svg" xmlns:xlink="http://www.w3.org/1999/xlink" viewBox="0 0 7px 7px" id="phone">
    <path fill-rule="evenodd" fill="rgb(174, 152, 112)" d="M6.304,5.417 L5.540,4.401 C5.267,4.38 4.708,4.89 4.523,4.482 C4.387,4.755 4.46,4.868 3.769,4.765 C3.156,4.515 2.415,3.568 2.350,2.879 C2.296,2.580 2.531,2.290 2.831,2.235 C3.263,2.168 3.466,1.645 3.194,1.283 L2.430,0.269 C2.207,0.10 1.825,0.43 1.571,0.146 L0.881,0.663 C0.187,1.213 0.616,2.989 1.898,4.692 C3.180,6.395 4.766,7.334 5.492,6.790 L6.182,6.273 C6.441,6.51 6.495,5.670 6.304,5.417 Z"></path>
  </symbol>
    <symbol fill="none" xmlns="http://www.w3.org/2000/svg" viewBox="0 0 30 30" id="fb-messenger">
    <g clip-path="url(#clip0_305_72)">
      <path fill-rule="evenodd" clip-rule="evenodd" d="M14.571 1C22.618 1 29.142 7.524 29.142 15.572C29.142 23.619 22.618 30.143 14.571 30.143C6.523 30.143 0 23.619 0 15.572C0 7.524 6.523 1 14.571 1Z" fill="url(#paint0_linear_305_72)"></path>
      <path fill-rule="evenodd" clip-rule="evenodd" d="M16.11 18.166L13.362 15.28L8 18.166L13.899 12L16.714 14.886L22.1 12L16.11 18.166Z" fill="#5C503C"></path>
    </g>
    <defs>
      <linearGradient id="paint0_linear_305_72" x1="3.44894e-07" y1="15.146" x2="31" y2="15.146" gradientUnits="userSpaceOnUse">
        <stop stop-color="#AE9870"></stop>
        <stop offset="1" stop-color="#AE9870" stop-opacity="0"></stop>
      </linearGradient>
      <clipPath id="clip0_305_72">
        <rect width="30" height="30" fill="white"></rect>
      </clipPath>
    </defs>
  </symbol>
  <symbol fill="none" xmlns="http://www.w3.org/2000/svg" viewBox="0 0 30 29" id="telegram">
    <path fill-rule="evenodd" clip-rule="evenodd" d="M14.571 0C22.618 0 29.142 6.524 29.142 14.572C29.142 22.619 22.618 29.143 14.571 29.143C6.523 29.143 0 22.619 0 14.572C0 6.524 6.523 0 14.571 0Z" fill="url(#paint0_linear_305_78)"></path>
    <path fill-rule="evenodd" clip-rule="evenodd" d="M11.563 15.52L12.887 18.89L14.611 17.838L17.567 19.526L19.649 10L9 14.515L11.563 15.52ZM16.606 12.733L13.347 15.76L12.941 17.317L12.191 15.408L16.606 12.733Z" fill="#5C503C"></path>
    <defs>
      <linearGradient id="paint0_linear_305_78" x1="3.44894e-07" y1="14.146" x2="31" y2="14.146" gradientUnits="userSpaceOnUse">
        <stop stop-color="#AE9870"></stop>
        <stop offset="1" stop-color="#AE9870" stop-opacity="0"></stop>
      </linearGradient>
    </defs>
  </symbol>
  <symbol fill="none" xmlns="http://www.w3.org/2000/svg" viewBox="0 0 30 30" id="whatsapp">
    <g clip-path="url(#clip0_305_72)">
      <path fill-rule="evenodd" clip-rule="evenodd" d="M14.571 1C22.618 1 29.142 7.524 29.142 15.572C29.142 23.619 22.618 30.143 14.571 30.143C6.523 30.143 0 23.619 0 15.572C0 7.524 6.523 1 14.571 1Z" fill="url(#paint0_linear_305_72)"></path>
      <path fill-rule="evenodd" clip-rule="evenodd" d="M14.5711 10.3811C11.8001 10.3811 9.5271 12.6551 9.5271 15.4261C9.5271 16.3391 9.7731 17.2291 10.2411 18.8001L9.5271 20.4681L11.9881 19.7561C12.7661 20.2231 13.6561 20.4681 14.5711 20.4681C17.3411 20.4681 19.6151 18.1961 19.6151 15.4261C19.6151 12.6551 17.3411 10.3811 14.5711 10.3811ZM17.7241 17.5571L17.4901 17.7921C17.1581 18.1231 16.3941 18.9601 15.9031 18.3001C14.2721 17.6871 12.3701 15.8431 12.3001 14.2471C11.8211 13.4551 11.9221 12.7681 12.1841 12.5061L12.4191 12.2731C12.5481 12.1411 12.7591 12.1411 12.8881 12.2731L13.8271 13.2101C13.8901 13.2731 13.9241 13.3561 13.9241 13.4451C13.9241 13.5331 13.8901 13.6161 13.8271 13.6791L13.5921 13.9141C13.3341 14.1741 13.3341 14.5951 13.5921 14.8531L15.1431 16.3831C15.4021 16.6421 15.8221 16.6431 16.8201 16.3831L16.3161 16.1491C16.4371 16.2601 16.6641 16.2601 16.7861 16.1491L17.7241 17.8701C17.8521 17.2141 17.8571 17.4231 17.7241 17.5571Z" fill="#5C503C"></path>
    </g>
    <defs>
      <linearGradient id="paint0_linear_305_72" x1="3.44894e-07" y1="15.146" x2="31" y2="15.146" gradientUnits="userSpaceOnUse">
        <stop stop-color="#AE9870"></stop>
        <stop offset="1" stop-color="#AE9870" stop-opacity="0"></stop>
      </linearGradient>
      <clipPath id="clip0_305_72">
        <rect width="30" height="30" fill="white"></rect>
      </clipPath>
    </defs>
  </symbol>
    <symbol xmlns="http://www.w3.org/2000/svg" xmlns:xlink="http://www.w3.org/1999/xlink" viewBox="0 0 12px 11px" id="arrow-down">
    <path fill-rule="evenodd" fill="rgb(255, 255, 255)" d="M6.308,10.862 C6.307,10.862 6.307,10.862 6.307,10.862 C6.139,11.37 5.868,11.36 5.700,10.862 L0.126,5.80 C0.33,4.909 0.33,4.635 0.126,4.464 C0.291,4.286 0.562,4.281 0.732,4.452 L5.575,9.474 L5.575,0.442 C5.575,0.196 5.767,0.1 6.4,0.1 C6.240,0.1 6.432,0.196 6.432,0.442 L6.432,9.474 L11.275,4.452 C11.442,4.285 11.705,4.285 11.871,4.452 C12.42,4.622 12.46,4.905 11.882,5.80 L6.308,10.862 Z"></path>
  </symbol>
</svg>