<svg 
 xmlns="http://www.w3.org/2000/svg"
 xmlns:xlink="http://www.w3.org/1999/xlink"
 width="9px" height="7px">
<path fill-rule="evenodd"  fill="rgb(188, 188, 188)"
 d="M0.0,6.997 L0.0,0.2 L8.999,0.2 L8.999,6.997 L0.0,6.997 ZM0.435,6.228 L3.19,3.496 L0.435,0.764 L0.435,6.228 ZM0.725,0.458 L4.6,3.928 C4.369,4.310 4.630,4.310 4.993,3.928 L8.273,0.458 L0.725,0.458 ZM8.273,6.535 L5.689,3.803 C5.181,4.341 4.848,4.710 4.499,4.710 C4.151,4.710 3.817,4.341 3.309,3.803 L0.725,6.535 L8.273,6.535 ZM5.980,3.496 L8.563,6.228 L8.563,0.764 L5.980,3.496 Z"/>
</svg>