<svg xmlns="http://www.w3.org/2000/svg" xmlns:xlink="http://www.w3.org/1999/xlink" width="8px" height="10px">
  <path fill-rule="evenodd" fill="rgb(174, 152, 112)"
    d="M3.644,0.279 C1.634,0.279 0.0,1.858 0.0,3.799 C0.0,6.207 3.261,9.742 3.400,9.891 C3.530,10.31 3.758,10.31 3.888,9.891 C4.27,9.742 7.288,6.207 7.288,3.799 C7.288,1.858 5.653,0.279 3.644,0.279 ZM3.644,5.569 C2.633,5.569 1.810,4.775 1.810,3.799 C1.810,2.822 2.633,2.28 3.644,2.28 C4.655,2.28 5.478,2.822 5.478,3.799 C5.478,4.775 4.655,5.569 3.644,5.569 Z" />
</svg>