<svg 
 xmlns="http://www.w3.org/2000/svg"
 xmlns:xlink="http://www.w3.org/1999/xlink"
 width="22px" height="22px">
<path fill-rule="evenodd"  fill="rgb(174, 152, 112)"
 d="M1.807,0.392 L21.606,20.191 C21.997,20.581 21.997,21.216 21.606,21.606 C21.215,21.996 20.582,21.996 20.192,21.606 L0.393,1.806 C0.2,1.416 0.2,0.783 0.393,0.392 C0.783,0.2 1.417,0.2 1.807,0.392 Z"/>
<path fill-rule="evenodd"  fill="rgb(174, 152, 112)"
 d="M0.393,20.191 L20.192,0.392 C20.582,0.2 21.215,0.2 21.606,0.392 C21.997,0.783 21.997,1.416 21.606,1.806 L1.807,21.606 C1.417,21.996 0.783,21.996 0.393,21.606 C0.2,21.216 0.2,20.581 0.393,20.191 Z"/>
</svg>