<svg 
 xmlns="http://www.w3.org/2000/svg"
 xmlns:xlink="http://www.w3.org/1999/xlink"
 width="33px" height="19px">
<path fill-rule="evenodd"  fill="rgb(19, 19, 18)"
 d="M32.804,9.517 C32.804,9.517 32.805,9.517 32.805,9.517 C33.57,9.770 33.57,10.177 32.804,10.430 L24.394,18.804 C24.143,19.46 23.745,19.46 23.495,18.804 C23.238,18.557 23.231,18.150 23.479,17.895 L30.785,10.617 L0.646,10.617 C0.289,10.617 0.0,10.328 0.0,9.973 C0.0,9.618 0.289,9.329 0.646,9.329 L30.785,9.329 L23.479,2.52 C23.237,1.803 23.237,1.407 23.479,1.157 C23.727,0.901 24.137,0.894 24.394,1.142 L32.804,9.517 Z"/>
</svg>