<svg 
 xmlns="http://www.w3.org/2000/svg"
 xmlns:xlink="http://www.w3.org/1999/xlink"
 width="10.75px" height="10.75px">
<path fill-rule="evenodd"  stroke="rgb(188, 188, 188)" stroke-width="0.5px" stroke-linecap="butt" stroke-linejoin="miter" fill="none"
 d="M9.71,7.439 L7.835,6.228 C7.589,5.988 7.182,5.994 6.927,6.245 L6.305,6.854 C6.265,6.833 6.225,6.811 6.182,6.787 C5.789,6.574 5.251,6.281 4.685,5.726 C4.117,5.168 3.818,4.642 3.600,4.255 C3.577,4.213 3.555,4.174 3.533,4.138 L3.951,3.728 L4.156,3.527 C4.411,3.277 4.418,2.878 4.172,2.636 L2.937,1.424 C2.692,1.183 2.284,1.191 2.29,1.441 L1.681,1.783 L1.690,1.793 C1.574,1.940 1.476,2.107 1.403,2.290 C1.337,2.462 1.295,2.628 1.276,2.793 C1.113,4.120 1.731,5.331 3.408,6.977 C5.726,9.249 7.594,9.77 7.675,9.70 C7.850,9.49 8.19,9.7 8.190,8.942 C8.373,8.872 8.545,8.777 8.694,8.663 L8.701,8.669 L9.54,8.330 C9.309,8.80 9.316,7.681 9.71,7.439 Z"/>
</svg>