<svg 
 xmlns="http://www.w3.org/2000/svg"
 xmlns:xlink="http://www.w3.org/1999/xlink"
 width="7px" height="7px">
<path fill-rule="evenodd"  fill="rgb(174, 152, 112)"
 d="M6.304,5.417 L5.540,4.401 C5.267,4.38 4.708,4.89 4.523,4.482 C4.387,4.755 4.46,4.868 3.769,4.765 C3.156,4.515 2.415,3.568 2.350,2.879 C2.296,2.580 2.531,2.290 2.831,2.235 C3.263,2.168 3.466,1.645 3.194,1.283 L2.430,0.269 C2.207,0.10 1.825,0.43 1.571,0.146 L0.881,0.663 C0.187,1.213 0.616,2.989 1.898,4.692 C3.180,6.395 4.766,7.334 5.492,6.790 L6.182,6.273 C6.441,6.51 6.495,5.670 6.304,5.417 Z"/>
</svg>