<svg 
 xmlns="http://www.w3.org/2000/svg"
 xmlns:xlink="http://www.w3.org/1999/xlink"
 width="13px" height="14px">
<path fill-rule="evenodd"  fill="rgb(73, 69, 61)"
 d="M12.709,10.280 L10.702,8.268 C10.302,7.869 9.639,7.882 9.226,8.296 L8.214,9.310 C8.150,9.274 8.84,9.236 8.15,9.197 C7.376,8.843 6.502,8.358 5.582,7.434 C4.659,6.510 4.174,5.633 3.819,4.994 C3.782,4.925 3.746,4.860 3.710,4.797 L4.389,4.118 L4.723,3.783 C5.137,3.367 5.149,2.705 4.750,2.304 L2.742,0.292 C2.343,0.107 1.681,0.95 1.266,0.321 L0.701,0.890 L0.716,0.906 C0.526,1.149 0.368,1.428 0.250,1.729 C0.141,2.16 0.73,2.290 0.42,2.566 C0.222,4.768 0.781,6.781 3.507,9.510 C7.274,13.286 10.310,13.1 10.441,12.987 C10.726,12.953 11.0,12.883 11.277,12.776 C11.576,12.660 11.855,12.501 12.97,12.311 L12.109,12.322 L12.682,11.759 C13.96,11.344 13.108,10.681 12.709,10.280 Z"/>
</svg>