<svg 
 xmlns="http://www.w3.org/2000/svg"
 xmlns:xlink="http://www.w3.org/1999/xlink"
 width="73px" height="73px">
<defs>
<linearGradient id="PSgrad_0" x1="100%" x2="0%" y1="0%" y2="0%">
  <stop offset="0%" stop-color="rgb(255,255,255)" stop-opacity="0.2" />
  <stop offset="100%" stop-color="rgb(255,255,255)" stop-opacity="0.2" />
</linearGradient>

</defs>
<path fill-rule="evenodd"  fill="rgb(174, 152, 112)"
 d="M36.499,72.995 C16.342,72.995 0.1,56.655 0.1,36.497 C0.1,16.341 16.342,0.0 36.499,0.0 C56.657,0.0 72.998,16.341 72.998,36.497 C72.998,56.655 56.657,72.995 36.499,72.995 ZM52.228,33.455 L32.466,20.158 C31.342,19.400 29.891,19.326 28.695,19.962 C27.498,20.600 26.751,21.845 26.751,23.201 L26.751,49.794 C26.751,51.150 27.498,52.395 28.695,53.32 C29.235,53.320 29.828,53.463 30.418,53.463 C31.135,53.463 31.850,53.252 32.466,52.837 L52.228,39.541 C53.241,38.859 53.849,37.718 53.849,36.497 C53.849,35.276 53.241,34.136 52.228,33.455 Z"/>
<path fill="url(#PSgrad_0)"
 d="M36.499,72.995 C16.342,72.995 0.1,56.655 0.1,36.497 C0.1,16.341 16.342,0.0 36.499,0.0 C56.657,0.0 72.998,16.341 72.998,36.497 C72.998,56.655 56.657,72.995 36.499,72.995 ZM52.228,33.455 L32.466,20.158 C31.342,19.400 29.891,19.326 28.695,19.962 C27.498,20.600 26.751,21.845 26.751,23.201 L26.751,49.794 C26.751,51.150 27.498,52.395 28.695,53.32 C29.235,53.320 29.828,53.463 30.418,53.463 C31.135,53.463 31.850,53.252 32.466,52.837 L52.228,39.541 C53.241,38.859 53.849,37.718 53.849,36.497 C53.849,35.276 53.241,34.136 52.228,33.455 Z"/>
</svg>