<svg 
 xmlns="http://www.w3.org/2000/svg"
 xmlns:xlink="http://www.w3.org/1999/xlink"
 width="33px" height="18px">
<path fill-rule="evenodd"  fill="rgb(19, 19, 18)"
 d="M0.195,9.463 C0.194,9.463 0.194,9.463 0.193,9.463 C0.58,9.211 0.57,8.804 0.195,8.553 L8.605,0.191 C8.856,0.48 9.253,0.48 9.504,0.191 C9.761,0.439 9.768,0.846 9.520,1.101 L2.214,8.365 L32.353,8.365 C32.710,8.365 32.999,8.652 32.999,9.9 C32.999,9.364 32.710,9.650 32.353,9.650 L2.214,9.650 L9.520,16.915 C9.762,17.164 9.762,17.559 9.520,17.809 C9.271,18.64 8.862,18.72 8.605,17.824 L0.195,9.463 Z"/>
</svg>