<svg 
 xmlns="http://www.w3.org/2000/svg"
 xmlns:xlink="http://www.w3.org/1999/xlink"
 width="31px" height="31px">
<defs>
<linearGradient id="PSgrad_0" x1="100%" x2="0%" y1="0%" y2="0%">
  <stop offset="0%" stop-color="rgb(255,255,255)" stop-opacity="0.2" />
  <stop offset="100%" stop-color="rgb(255,255,255)" stop-opacity="0.2" />
</linearGradient>

</defs>
<path fill-rule="evenodd"  fill="rgb(174, 152, 112)"
 d="M15.499,0.0 C24.60,0.0 30.999,6.939 30.999,15.499 C30.999,24.59 24.60,30.999 15.499,30.999 C6.939,30.999 0.0,24.59 0.0,15.499 C0.0,6.939 6.939,0.0 15.499,0.0 Z"/>
<path fill="url(#PSgrad_0)"
 d="M15.499,0.0 C24.60,0.0 30.999,6.939 30.999,15.499 C30.999,24.59 24.60,30.999 15.499,30.999 C6.939,30.999 0.0,24.59 0.0,15.499 C0.0,6.939 6.939,0.0 15.499,0.0 Z"/>
<path fill-rule="evenodd"  fill="rgb(73, 67, 56)"
 d="M21.742,21.48 L16.853,16.159 C18.570,14.59 18.260,10.964 16.160,9.247 C14.60,7.529 10.965,7.841 9.248,9.940 C7.531,12.41 7.841,15.136 9.941,16.852 C11.750,18.332 14.351,18.332 16.160,16.852 L21.49,21.742 C21.244,21.930 21.554,21.924 21.742,21.729 C21.926,21.540 21.926,21.238 21.742,21.48 ZM13.58,16.981 C10.892,16.978 9.137,15.224 9.135,13.57 C9.135,10.891 10.892,9.134 13.58,9.134 C15.225,9.134 16.982,10.891 16.982,13.57 C16.982,15.224 15.225,16.981 13.58,16.981 Z"/>
</svg>