<svg 
 xmlns="http://www.w3.org/2000/svg"
 xmlns:xlink="http://www.w3.org/1999/xlink"
 width="8px" height="8px">
<path fill-rule="evenodd"  fill="rgb(188, 188, 188)"
 d="M4.0,7.996 C1.794,7.996 0.0,6.203 0.0,3.998 C0.0,1.791 1.794,0.2 4.0,0.2 C6.205,0.2 7.999,1.791 7.999,3.998 C7.999,6.203 6.205,7.996 4.0,7.996 ZM4.0,0.542 C2.95,0.542 0.545,2.93 0.545,3.998 C0.545,5.902 2.95,7.452 4.0,7.452 C5.904,7.452 7.454,5.902 7.454,3.998 C7.454,2.93 5.904,0.542 4.0,0.542 ZM4.189,4.166 L2.755,5.736 C2.755,5.736 2.575,5.908 2.406,5.754 C2.238,5.600 2.388,5.401 2.388,5.401 L3.754,3.905 L3.754,1.37 C3.754,1.37 3.772,0.785 3.999,0.786 C4.228,0.788 4.251,1.37 4.251,1.37 L4.251,3.960 C4.261,4.70 4.189,4.166 4.189,4.166 Z"/>
</svg>