<svg width="30" height="30" viewBox="0 0 30 30" fill="none" xmlns="http://www.w3.org/2000/svg">
<g clip-path="url(#clip0_305_72)">
<path fill-rule="evenodd" clip-rule="evenodd" d="M14.571 1C22.618 1 29.142 7.524 29.142 15.572C29.142 23.619 22.618 30.143 14.571 30.143C6.523 30.143 0 23.619 0 15.572C0 7.524 6.523 1 14.571 1Z" fill="url(#paint0_linear_305_72)"/>
<path fill-rule="evenodd" clip-rule="evenodd" d="M14.5711 10.3811C11.8001 10.3811 9.5271 12.6551 9.5271 15.4261C9.5271 16.3391 9.7731 17.2291 10.2411 18.8001L9.5271 20.4681L11.9881 19.7561C12.7661 20.2231 13.6561 20.4681 14.5711 20.4681C17.3411 20.4681 19.6151 18.1961 19.6151 15.4261C19.6151 12.6551 17.3411 10.3811 14.5711 10.3811ZM17.7241 17.5571L17.4901 17.7921C17.1581 18.1231 16.3941 18.9601 15.9031 18.3001C14.2721 17.6871 12.3701 15.8431 12.3001 14.2471C11.8211 13.4551 11.9221 12.7681 12.1841 12.5061L12.4191 12.2731C12.5481 12.1411 12.7591 12.1411 12.8881 12.2731L13.8271 13.2101C13.8901 13.2731 13.9241 13.3561 13.9241 13.4451C13.9241 13.5331 13.8901 13.6161 13.8271 13.6791L13.5921 13.9141C13.3341 14.1741 13.3341 14.5951 13.5921 14.8531L15.1431 16.3831C15.4021 16.6421 15.8221 16.6431 16.8201 16.3831L16.3161 16.1491C16.4371 16.2601 16.6641 16.2601 16.7861 16.1491L17.7241 17.8701C17.8521 17.2141 17.8571 17.4231 17.7241 17.5571Z" fill="#5C503C"/>
</g>
<defs>
<linearGradient id="paint0_linear_305_72" x1="3.44894e-07" y1="15.146" x2="31" y2="15.146" gradientUnits="userSpaceOnUse">
<stop stop-color="#AF9971"/>
<stop offset="1" stop-color="#F3E8D2"/>
</linearGradient>
<clipPath id="clip0_305_72">
<rect width="30" height="30" fill="white"/>
</clipPath>
</defs>
</svg>
